<?xml version="1.0" standalone="no"?>
<!DOCTYPE svg PUBLIC "-//W3C//DTD SVG 20010904//EN"
 "http://www.w3.org/TR/2001/REC-SVG-20010904/DTD/svg10.dtd">
<svg version="1.0" xmlns="http://www.w3.org/2000/svg"
 width="394.000000pt" height="791.000000pt" viewBox="0 0 394.000000 791.000000"
 preserveAspectRatio="xMidYMid meet">

<g transform="translate(0.000000,791.000000) scale(0.100000,-0.100000)"
fill="#000000" stroke="none">
<path d="M20 7005 l0 -884 97 35 c54 20 537 193 1073 386 536 192 1373 493
1860 668 l885 318 3 181 2 181 -1960 0 -1960 0 0 -885z"/>
<path d="M3410 7101 c-43 -23 -86 -65 -108 -106 -25 -46 -22 -150 6 -202 55
-104 186 -150 292 -102 80 36 125 96 136 183 12 88 -44 185 -133 230 -45 22
-148 21 -193 -3z m115 -1 c4 -6 -6 -10 -22 -10 -22 0 -25 2 -13 10 19 12 27
12 35 0z m85 -40 c0 -25 -4 -30 -22 -29 -17 1 -19 2 -5 6 21 5 23 43 2 43 -8
0 -15 -7 -15 -17 0 -9 -3 -14 -6 -10 -12 12 5 37 26 37 16 0 20 -7 20 -30z
m-163 0 c4 -13 3 -13 -7 0 -9 11 -13 12 -17 2 -2 -6 -9 -10 -14 -6 -14 8 0 26
19 22 8 -2 17 -10 19 -18z m-59 -58 c3 -18 -1 -22 -22 -22 -19 0 -26 5 -26 18
0 39 43 43 48 4z m189 8 c51 -30 66 -62 61 -122 -5 -44 -11 -57 -42 -85 -30
-28 -43 -33 -86 -33 -43 0 -56 5 -86 33 -31 28 -37 41 -41 83 -5 59 10 90 56
121 42 28 95 30 138 3z m93 -1 c0 -12 -29 -24 -37 -16 -3 4 -3 13 0 21 6 16
37 11 37 -5z m38 -66 c-10 -2 -26 -2 -35 0 -10 3 -2 5 17 5 19 0 27 -2 18 -5z
m-361 -26 c0 -8 -6 -14 -14 -14 -7 0 -13 6 -13 14 0 7 6 13 13 13 8 0 14 -6
14 -13z m368 -37 c-3 -5 -15 -10 -25 -10 -10 0 -22 5 -25 10 -4 6 7 10 25 10
18 0 29 -4 25 -10z m-25 -81 c0 -14 -7 -19 -25 -19 -18 0 -25 5 -25 18 0 25 7
31 31 25 10 -3 19 -14 19 -24z m-303 -5 c3 -8 1 -20 -5 -26 -8 -8 -9 -5 -6 10
4 14 0 22 -13 25 -17 4 -17 5 0 6 10 0 20 -6 24 -15z m43 -34 c0 -5 -2 -10 -4
-10 -3 0 -8 5 -11 10 -3 6 -1 10 4 10 6 0 11 -4 11 -10z m120 -45 c0 -22 -4
-25 -35 -25 -31 0 -35 3 -35 25 0 22 4 25 35 25 31 0 35 -3 35 -25z"/>
<path d="M3468 6969 c-25 -14 -24 -65 1 -79 11 -5 33 -10 50 -10 50 0 40 -28
-11 -32 -56 -4 -55 -22 0 -26 49 -4 72 10 72 43 0 29 -17 43 -60 47 -24 2 -36
9 -38 21 -3 14 4 17 38 17 29 0 40 4 38 13 -6 15 -67 20 -90 6z"/>
<path d="M3400 6900 c0 -5 5 -10 10 -10 6 0 10 5 10 10 0 6 -4 10 -10 10 -5 0
-10 -4 -10 -10z"/>
<path d="M3605 6900 c-3 -5 -1 -10 4 -10 6 0 11 5 11 10 0 6 -2 10 -4 10 -3 0
-8 -4 -11 -10z"/>
<path d="M3640 7010 c0 -5 5 -10 11 -10 5 0 7 5 4 10 -3 6 -8 10 -11 10 -2 0
-4 -4 -4 -10z"/>
<path d="M3490 6715 c0 -9 9 -15 25 -15 16 0 25 6 25 15 0 9 -9 15 -25 15 -16
0 -25 -6 -25 -15z"/>
<path d="M1120 3177 l0 -123 54 -1 c71 -2 87 11 93 73 4 40 1 54 -17 77 -23
28 -58 35 -78 15 -9 -9 -12 -2 -12 35 0 40 -3 47 -20 47 -19 0 -20 -7 -20
-123z m94 7 c20 -20 20 -68 0 -88 -19 -19 -26 -20 -42 -4 -25 25 -10 108 19
108 4 0 15 -7 23 -16z"/>
<path d="M1310 3175 c0 -118 1 -125 20 -125 19 0 20 7 20 125 0 118 -1 125
-20 125 -19 0 -20 -7 -20 -125z"/>
<path d="M2146 3275 c-16 -24 -15 -25 2 -25 10 0 29 11 42 25 l23 25 -25 0
c-16 0 -32 -9 -42 -25z"/>
<path d="M642 3208 c3 -70 6 -83 21 -86 15 -3 17 6 17 82 0 80 -1 86 -20 86
-20 0 -21 -5 -18 -82z"/>
<path d="M730 3171 c0 -114 1 -121 20 -121 17 0 20 7 20 45 l0 45 45 0 c54 0
85 25 85 69 0 52 -29 74 -104 79 l-66 4 0 -121z m118 67 c28 -28 -1 -68 -49
-68 -27 0 -29 2 -29 40 0 39 1 40 33 40 18 0 38 -5 45 -12z"/>
<path d="M1392 3273 c5 -26 38 -29 38 -4 0 15 -6 21 -21 21 -14 0 -19 -5 -17
-17z"/>
<path d="M1994 3279 c-9 -15 12 -33 30 -26 9 4 16 13 16 22 0 17 -35 21 -46 4z"/>
<path d="M2874 3279 c-9 -15 12 -33 30 -26 9 4 16 13 16 22 0 17 -35 21 -46 4z"/>
<path d="M3602 3208 c3 -70 6 -83 21 -86 15 -3 17 6 17 82 0 80 -1 86 -20 86
-20 0 -21 -5 -18 -82z"/>
<path d="M2970 3250 c0 -11 -7 -20 -15 -20 -8 0 -15 -6 -15 -14 0 -8 7 -16 15
-20 11 -4 15 -21 15 -64 0 -63 11 -82 47 -82 26 0 32 25 8 34 -11 4 -15 21
-15 61 0 42 3 55 15 55 8 0 15 7 15 15 0 8 -7 15 -15 15 -8 0 -15 9 -15 20 0
13 -7 20 -20 20 -13 0 -20 -7 -20 -20z"/>
<path d="M930 3162 c0 -95 13 -111 90 -110 l60 1 0 88 c0 82 -2 89 -20 89 -18
0 -20 -7 -20 -65 0 -56 -3 -66 -22 -76 -31 -17 -48 11 -48 83 0 51 -2 58 -20
58 -18 0 -20 -7 -20 -68z"/>
<path d="M1390 3140 c0 -83 1 -90 20 -90 19 0 20 7 20 90 0 83 -1 90 -20 90
-19 0 -20 -7 -20 -90z"/>
<path d="M1496 3209 c-22 -17 -26 -29 -26 -68 0 -85 72 -120 128 -64 24 24 25
28 9 31 -10 2 -27 -4 -38 -14 -31 -28 -54 -8 -54 46 0 55 28 78 52 43 16 -24
38 -30 47 -14 3 5 -4 20 -15 35 -25 32 -66 34 -103 5z"/>
<path d="M1658 3208 l-23 -23 23 -3 c13 -2 30 2 37 8 18 15 45 6 45 -15 0 -10
-9 -15 -28 -15 -38 0 -72 -26 -72 -55 0 -39 23 -53 87 -52 l58 0 -3 71 c-3 45
-10 77 -20 89 -22 25 -77 22 -104 -5z m82 -97 c0 -22 -37 -38 -52 -23 -17 17
-1 42 27 42 18 0 25 -5 25 -19z"/>
<path d="M1848 3220 c-9 -6 -22 -26 -28 -45 -29 -87 48 -158 118 -109 27 19
29 44 2 44 -11 0 -20 -4 -20 -9 0 -15 -32 -22 -46 -10 -8 6 -14 28 -14 49 0
21 6 43 14 49 16 13 42 6 50 -15 8 -21 36 -17 36 5 0 39 -70 65 -112 41z"/>
<path d="M2000 3140 c0 -83 1 -90 20 -90 19 0 20 7 20 90 0 83 -1 90 -20 90
-19 0 -20 -7 -20 -90z"/>
<path d="M2103 3215 c-28 -20 -39 -76 -23 -116 36 -85 150 -54 150 41 0 73
-71 114 -127 75z m68 -25 c35 -19 17 -110 -21 -110 -12 0 -40 41 -40 60 0 16
27 60 36 60 3 0 14 -5 25 -10z"/>
<path d="M2264 3217 c-3 -8 -4 -47 -2 -88 2 -61 6 -74 21 -77 15 -3 17 5 17
57 0 41 5 64 16 75 34 35 54 8 54 -71 0 -56 2 -63 20 -63 18 0 20 7 20 73 0
59 -4 77 -18 90 -21 19 -45 21 -73 7 -13 -7 -19 -7 -19 0 0 15 -30 12 -36 -3z"/>
<path d="M2552 3208 c-60 -65 -23 -158 62 -158 32 0 64 25 50 40 -9 9 -17 9
-33 1 -25 -14 -61 1 -61 24 0 11 14 15 56 15 l57 0 -7 33 c-12 63 -82 89 -124
45z m74 -25 c17 -17 16 -18 -15 -21 -40 -4 -48 2 -31 23 16 19 25 19 46 -2z"/>
<path d="M2700 3224 c0 -3 10 -22 22 -43 l22 -38 -22 -37 c-27 -45 -27 -56 -4
-56 10 0 26 14 36 31 l18 31 19 -31 c10 -17 26 -31 34 -31 20 0 19 12 -6 54
l-21 36 21 36 c12 19 21 39 21 45 0 19 -37 8 -50 -16 -7 -14 -16 -25 -20 -25
-4 0 -12 11 -18 25 -7 15 -20 25 -32 25 -11 0 -20 -2 -20 -6z"/>
<path d="M2880 3140 c0 -83 1 -90 20 -90 19 0 20 7 20 90 0 83 -1 90 -20 90
-19 0 -20 -7 -20 -90z"/>
<path d="M3085 3205 c-19 -18 -25 -35 -25 -65 0 -76 75 -116 131 -71 20 16 24
29 24 71 0 42 -4 55 -24 71 -32 26 -77 24 -106 -6z m81 -30 c10 -16 14 -34 9
-54 -7 -34 -28 -45 -56 -31 -24 13 -26 72 -3 94 21 22 31 20 50 -9z"/>
<path d="M3272 3214 c-13 -9 -22 -26 -22 -40 0 -24 11 -32 82 -57 22 -8 13
-37 -12 -37 -10 0 -23 7 -30 15 -14 17 -50 20 -50 5 0 -23 41 -50 75 -50 36 0
75 28 75 53 0 19 -30 44 -63 52 -32 9 -43 23 -28 38 8 8 17 7 34 -2 14 -7 33
-11 43 -9 18 3 17 5 -4 26 -26 26 -68 29 -100 6z"/>
<path d="M3442 3214 c-40 -28 -15 -49 27 -22 15 9 23 9 35 -1 23 -19 20 -31
-8 -31 -63 0 -99 -38 -76 -80 13 -25 57 -37 82 -21 11 7 18 7 18 1 0 -5 9 -10
20 -10 18 0 20 7 20 70 0 57 -4 74 -20 90 -24 24 -67 26 -98 4z m76 -100 c-5
-26 -34 -40 -52 -25 -22 19 -8 41 26 41 22 0 29 -4 26 -16z"/>
<path d="M3611 3090 c-17 -10 -7 -40 13 -40 7 0 16 6 19 14 8 19 -15 37 -32
26z"/>
<path d="M642 3073 c2 -10 10 -18 18 -18 8 0 16 8 18 18 2 12 -3 17 -18 17
-15 0 -20 -5 -18 -17z"/>
<path d="M730 2725 l0 -75 48 2 47 1 -42 4 c-40 4 -43 6 -43 33 0 26 4 29 38
33 l37 4 -37 1 c-33 2 -38 5 -38 27 0 23 4 25 40 25 22 0 40 5 40 10 0 6 -20
10 -45 10 l-45 0 0 -75z"/>
<path d="M1641 2728 c-1 -61 2 -78 13 -78 8 0 21 -3 29 -6 21 -8 47 23 47 56
0 37 -26 63 -56 56 -19 -5 -23 -2 -27 21 -2 16 -5 -7 -6 -49z m63 6 c33 -33 4
-94 -35 -74 -22 12 -26 59 -7 78 16 16 23 15 42 -4z"/>
<path d="M2420 2774 c0 -20 -4 -25 -16 -20 -30 12 -54 -12 -54 -54 0 -45 19
-61 63 -53 27 5 27 7 27 79 0 43 -4 74 -10 74 -5 0 -10 -12 -10 -26z m-16 -30
c20 -8 22 -80 4 -87 -38 -13 -66 51 -36 81 14 14 12 14 32 6z"/>
<path d="M962 2763 c-8 -8 -9 -13 -2 -13 5 0 10 -22 10 -49 0 -36 4 -51 16
-55 9 -4 19 -4 22 -1 3 2 -3 7 -12 11 -18 7 -23 73 -7 90 6 5 5 13 -3 20 -8 8
-15 7 -24 -3z"/>
<path d="M860 2745 c-16 -19 -6 -45 18 -45 27 0 45 -23 30 -38 -16 -16 -23
-15 -42 4 -9 8 -16 11 -16 5 0 -19 38 -33 60 -21 31 16 24 39 -16 56 -34 14
-36 17 -20 32 12 13 19 14 28 4 7 -7 17 -12 23 -12 14 1 -26 30 -41 30 -6 0
-17 -7 -24 -15z"/>
<path d="M1053 2753 c-7 -2 -13 -9 -13 -15 0 -6 6 -6 15 2 18 15 45 6 45 -15
0 -9 -9 -15 -23 -15 -25 0 -47 -17 -47 -37 0 -19 32 -32 63 -26 24 5 27 10 27
43 0 53 -28 79 -67 63z m47 -72 c0 -20 -25 -35 -41 -25 -5 3 -9 14 -9 25 0 14
7 19 25 19 18 0 25 -5 25 -19z"/>
<path d="M1156 2753 c-10 -10 -7 -103 3 -103 5 0 11 23 13 51 3 49 -2 66 -16
52z"/>
<path d="M1207 2745 c15 -11 23 -28 26 -58 l4 -42 1 41 c4 81 57 81 65 1 l4
-42 1 46 c2 57 -16 78 -53 61 -15 -7 -26 -8 -30 -2 -4 6 -14 10 -23 10 -13 0
-12 -3 5 -15z"/>
<path d="M1360 2740 c-11 -11 -20 -29 -20 -40 0 -20 32 -60 48 -60 4 0 18 7
30 16 27 19 29 64 4 87 -24 22 -38 21 -62 -3z m54 -6 c20 -20 20 -48 0 -68
-21 -22 -31 -20 -50 9 -15 23 -15 27 0 50 19 29 29 31 50 9z"/>
<path d="M1480 2745 c-16 -19 -6 -45 18 -45 11 0 25 -7 33 -16 10 -13 10 -17
-2 -25 -19 -12 -25 -11 -43 7 -9 8 -16 11 -16 5 0 -19 38 -33 60 -21 31 16 24
39 -16 56 -34 14 -36 17 -20 32 12 13 19 14 28 4 17 -17 33 -15 18 3 -16 19
-44 19 -60 0z"/>
<path d="M1760 2711 c0 -57 16 -73 63 -64 25 5 27 8 27 59 0 30 -4 54 -10 54
-5 0 -10 -22 -10 -49 0 -35 -4 -51 -16 -55 -26 -10 -34 2 -34 49 0 24 -4 47
-10 50 -6 4 -10 -13 -10 -44z"/>
<path d="M1895 2746 c-25 -18 -13 -42 24 -49 17 -4 31 -13 31 -21 0 -22 -31
-28 -51 -10 -11 10 -19 12 -19 6 0 -17 38 -34 60 -27 13 4 20 15 20 30 0 18
-7 25 -30 30 -16 4 -30 13 -30 20 0 21 17 27 40 15 11 -6 20 -7 20 -1 0 8 -23
21 -39 21 -4 0 -16 -6 -26 -14z"/>
<path d="M2007 2742 c-40 -44 3 -119 52 -92 12 6 21 16 21 22 0 6 -8 4 -19 -6
-21 -19 -47 -13 -54 15 -13 49 22 82 54 53 11 -10 19 -12 19 -6 0 11 -31 32
-48 32 -5 0 -16 -8 -25 -18z"/>
<path d="M2124 2745 c-10 -8 -14 -15 -8 -15 5 0 15 5 20 10 14 14 44 2 44 -16
0 -8 -9 -14 -19 -14 -34 0 -51 -12 -51 -35 0 -25 19 -34 58 -27 19 4 22 10 22
52 0 34 -4 50 -16 54 -23 9 -28 8 -50 -9z m56 -60 c0 -19 -32 -36 -49 -25 -8
4 -11 15 -8 24 8 20 57 22 57 1z"/>
<path d="M2232 2702 c1 -47 2 -50 5 -17 3 22 9 45 14 51 6 8 4 14 -6 18 -12 4
-15 -4 -13 -52z"/>
<path d="M2282 2748 c10 -8 19 -31 21 -58 3 -38 4 -36 3 10 -1 47 -4 55 -21
58 -18 4 -19 3 -3 -10z"/>
<path d="M2487 2742 c-24 -26 -21 -68 5 -86 12 -9 26 -16 30 -16 16 0 48 40
48 60 0 23 -33 60 -53 60 -8 0 -21 -8 -30 -18z m59 -17 c15 -23 15 -27 0 -50
-19 -29 -29 -31 -50 -9 -20 20 -20 48 0 68 21 22 31 20 50 -9z"/>
<path d="M2658 2754 c-5 -4 -8 -24 -8 -45 0 -41 24 -74 47 -65 8 3 21 6 29 6
11 0 14 14 12 58 -2 56 -2 56 -5 10 -3 -36 -9 -51 -25 -59 -27 -15 -36 -3 -40
54 -2 27 -6 45 -10 41z"/>
<path d="M2782 2700 c1 -49 2 -50 5 -13 5 49 25 72 47 53 8 -6 17 -30 19 -53
l4 -42 1 46 c2 53 -10 68 -50 66 -27 -2 -28 -4 -26 -57z"/>
<path d="M2952 2705 c1 -44 2 -49 5 -20 3 22 10 46 16 54 9 11 9 13 0 8 -6 -4
-14 -1 -16 5 -3 7 -5 -14 -5 -47z"/>
<path d="M3003 2749 c12 -7 17 -23 17 -54 0 -25 5 -45 10 -45 13 0 13 66 0 91
-6 10 -18 19 -28 19 -16 -1 -16 -1 1 -11z"/>
<path d="M3071 2713 c-1 -59 14 -75 62 -66 25 5 27 9 27 54 0 26 -4 51 -10 54
-6 4 -10 -13 -10 -43 0 -37 -4 -51 -17 -56 -24 -10 -36 8 -44 62 l-6 47 -2
-52z"/>
<path d="M3206 2744 c-17 -16 -21 -61 -8 -80 11 -18 45 -25 62 -13 12 8 11 9
-6 4 -14 -3 -28 1 -38 10 -25 26 -19 35 24 35 28 0 40 4 40 14 0 18 -27 46
-45 46 -7 0 -21 -7 -29 -16z m54 -14 c10 -18 8 -20 -25 -20 -33 0 -35 2 -25
20 6 11 17 20 25 20 8 0 19 -9 25 -20z"/>
<path d="M3301 2756 c-2 -16 34 -106 41 -106 5 0 8 1 8 3 0 1 9 26 20 55 11
28 16 52 12 52 -5 0 -15 -21 -24 -47 l-15 -48 -12 30 c-18 48 -30 71 -30 61z"/>
<path d="M3428 2749 c-18 -10 -25 -64 -10 -85 12 -19 47 -25 67 -10 25 18 25
74 0 92 -22 16 -34 17 -57 3z m50 -11 c17 -17 15 -63 -2 -77 -11 -9 -20 -10
-35 -1 -35 18 -23 90 14 90 6 0 16 -5 23 -12z"/>
<path d="M1022 2460 c1 -72 2 -78 7 -36 4 27 4 66 0 85 -5 25 -7 10 -7 -49z"/>
<path d="M2760 2512 c0 -26 -3 -28 -30 -24 -25 4 -31 0 -40 -24 -8 -20 -8 -35
1 -56 10 -24 16 -28 50 -26 l39 1 0 79 c0 45 -4 78 -10 78 -5 0 -10 -13 -10
-28z m-5 -77 c0 -36 -2 -40 -25 -40 -20 0 -26 6 -28 28 -5 42 5 59 30 55 20
-3 23 -9 23 -43z"/>
<path d="M2131 2508 c-1 -10 -7 -18 -13 -18 -10 0 -10 -2 -1 -8 6 -4 13 -27
15 -51 2 -29 8 -46 18 -49 12 -4 13 -2 3 9 -7 7 -13 30 -13 51 0 24 5 38 13
38 8 0 9 3 1 8 -6 4 -14 14 -17 22 -4 12 -6 11 -6 -2z"/>
<path d="M3061 2508 c-1 -9 -9 -19 -18 -21 -17 -4 -17 -5 0 -6 14 -1 17 -10
17 -51 0 -41 3 -50 18 -49 10 0 12 3 5 6 -8 3 -13 23 -13 49 0 28 4 44 13 44
8 0 9 3 1 8 -6 4 -14 14 -17 22 -4 12 -6 12 -6 -2z"/>
<path d="M1065 2481 c15 -6 22 -21 26 -57 l6 -49 -1 55 c-1 51 -3 55 -26 57
-22 2 -23 2 -5 -6z"/>
<path d="M1152 2478 c-16 -16 -16 -70 0 -86 7 -7 21 -12 33 -12 30 0 45 19 45
55 0 36 -15 55 -45 55 -12 0 -26 -5 -33 -12z m56 -10 c28 -28 2 -88 -33 -74
-21 8 -29 31 -21 61 7 27 34 33 54 13z"/>
<path d="M1268 2465 c-8 -18 -9 -34 -2 -53 8 -22 16 -27 42 -27 24 0 32 -4 30
-15 -2 -10 -15 -15 -36 -15 -17 0 -32 -3 -32 -8 0 -5 17 -7 38 -5 l37 3 3 70
3 71 -36 2 c-29 2 -37 -2 -47 -23z m67 -30 c0 -34 -3 -40 -22 -43 -16 -2 -26
4 -34 21 -15 33 4 69 34 65 18 -2 22 -10 22 -43z"/>
<path d="M1397 2484 c-15 -15 -6 -24 12 -13 27 18 49 5 47 -28 -2 -35 -13 -53
-32 -53 -20 0 -30 30 -13 42 12 8 11 9 -1 5 -8 -2 -15 -15 -15 -28 0 -21 5
-24 38 -24 l38 -1 -3 51 c-3 48 -4 50 -33 53 -17 2 -34 0 -38 -4z"/>
<path d="M1512 2430 l1 -55 6 49 c4 36 11 51 26 57 17 6 15 7 -7 6 -27 -1 -28
-3 -26 -57z"/>
<path d="M1641 2411 c1 -42 4 -64 6 -50 3 22 8 25 33 21 24 -3 32 1 42 22 8
19 9 35 2 54 -8 22 -16 27 -47 28 l-37 1 1 -76z m64 24 c0 -36 -2 -40 -25 -40
-20 0 -26 6 -28 28 -5 42 5 59 30 55 20 -3 23 -9 23 -43z"/>
<path d="M1767 2484 c-15 -15 -6 -24 12 -13 27 17 48 5 49 -28 0 -32 -14 -53
-35 -53 -20 0 -29 30 -12 42 12 8 11 9 -1 5 -8 -2 -15 -15 -15 -28 0 -21 5
-24 38 -24 l38 -1 -3 51 c-3 48 -4 50 -33 53 -17 2 -34 0 -38 -4z"/>
<path d="M1881 2430 c1 -30 4 -41 6 -25 7 58 13 74 31 78 9 3 5 4 -10 4 -27
-1 -28 -3 -27 -57z"/>
<path d="M1957 2484 c-15 -15 -6 -24 12 -13 27 18 49 5 47 -28 -2 -35 -13 -53
-32 -53 -20 0 -30 30 -13 42 12 8 11 9 -1 5 -8 -2 -15 -15 -15 -28 0 -21 5
-24 38 -24 l38 -1 -3 51 c-3 48 -4 50 -33 53 -17 2 -34 0 -38 -4z"/>
<path d="M2190 2446 c0 -51 14 -66 58 -63 32 2 32 3 32 55 0 65 -18 69 -22 5
-3 -40 -6 -48 -23 -48 -17 0 -20 8 -23 48 -4 59 -22 62 -22 3z"/>
<path d="M2371 2410 c1 -41 4 -63 6 -49 3 22 8 25 29 21 33 -6 54 14 54 53 0
40 -18 56 -59 53 l-31 -2 1 -76z m70 49 c16 -31 -4 -71 -34 -67 -39 5 -37 88
2 88 11 0 25 -10 32 -21z"/>
<path d="M2490 2434 c0 -30 5 -54 10 -54 6 0 10 20 10 45 0 30 5 47 17 53 13
8 11 10 -10 10 -26 0 -27 -3 -27 -54z"/>
<path d="M2572 2478 c-29 -29 -6 -98 33 -98 46 0 68 46 45 91 -12 22 -59 26
-78 7z m63 -43 c0 -36 -3 -40 -25 -40 -18 0 -27 7 -34 27 -12 33 7 60 38 56
17 -2 21 -10 21 -43z"/>
<path d="M2810 2448 c0 -57 9 -68 53 -66 l37 1 0 54 c0 66 -18 71 -22 6 -3
-40 -6 -48 -23 -48 -17 0 -20 8 -23 48 -4 58 -22 63 -22 5z"/>
<path d="M2942 2478 c-7 -7 -12 -26 -12 -43 0 -17 5 -36 12 -43 17 -17 53 -15
68 3 9 10 9 15 1 15 -6 0 -11 -4 -11 -10 0 -14 -33 -13 -48 2 -27 27 -7 78 30
78 10 0 18 -4 18 -10 0 -5 5 -10 11 -10 8 0 8 5 -1 15 -15 18 -51 20 -68 3z"/>
<path d="M3134 2482 c-38 -25 -16 -102 29 -102 31 0 47 18 47 55 0 17 -5 36
-12 43 -13 13 -47 16 -64 4z m56 -16 c26 -32 -7 -87 -44 -73 -16 6 -23 66 -9
80 11 12 40 8 53 -7z"/>
<path d="M20 725 l0 -725 1602 0 c881 0 1599 2 1597 4 -2 1 -182 83 -399 181
-774 348 -2765 1247 -2782 1256 -17 9 -18 -28 -18 -716z"/>
</g>
</svg>
